<svg width="17" height="20" viewBox="0 0 17 20" fill="none" xmlns="http://www.w3.org/2000/svg">
<path fill-rule="evenodd" clip-rule="evenodd" d="M8.58383 6.5C7.61883 6.5 6.83383 7.285 6.83383 8.251C6.83383 9.216 7.61883 10 8.58383 10C9.54883 10 10.3338 9.216 10.3338 8.251C10.3338 7.285 9.54883 6.5 8.58383 6.5ZM8.58383 11.5C6.79183 11.5 5.33383 10.043 5.33383 8.251C5.33383 6.458 6.79183 5 8.58383 5C10.3758 5 11.8338 6.458 11.8338 8.251C11.8338 10.043 10.3758 11.5 8.58383 11.5Z" fill="#888888"/>
<mask id="mask0_1120_251" style="mask-type:luminance" maskUnits="userSpaceOnUse" x="0" y="0" width="17" height="20">
<path fill-rule="evenodd" clip-rule="evenodd" d="M0.333344 0H16.8328V19.5H0.333344V0Z" fill="white"/>
</mask>
<g mask="url(#mask0_1120_251)">
<path fill-rule="evenodd" clip-rule="evenodd" d="M8.58286 1.5C4.86086 1.5 1.83286 4.557 1.83286 8.313C1.83286 13.092 7.45686 17.748 8.58286 17.996C9.70886 17.747 15.3329 13.091 15.3329 8.313C15.3329 4.557 12.3049 1.5 8.58286 1.5ZM8.58286 19.5C6.78886 19.5 0.332855 13.948 0.332855 8.313C0.332855 3.729 4.03386 0 8.58286 0C13.1319 0 16.8329 3.729 16.8329 8.313C16.8329 13.948 10.3769 19.5 8.58286 19.5Z" fill="#888888"/>
</g>
</svg>
