<svg width="10" height="10" viewBox="0 0 10 10" fill="none" xmlns="http://www.w3.org/2000/svg">
<path fill-rule="evenodd" clip-rule="evenodd" d="M5.55213 1.0885L6.46583 2.91388C6.55538 3.09308 6.72823 3.21734 6.92867 3.24609L8.97267 3.54031C9.47768 3.61322 9.67864 4.22527 9.31316 4.57597L7.83509 5.99622C7.68984 6.13588 7.62372 6.33665 7.65808 6.53382L8.0069 8.53891C8.0928 9.03492 7.56488 9.41334 7.1135 9.17869L5.28661 8.23134C5.10751 8.1384 4.89301 8.1384 4.71339 8.23134L2.8865 9.17869C2.43512 9.41334 1.9072 9.03492 1.99362 8.53891L2.34192 6.53382C2.37628 6.33665 2.31016 6.13588 2.16491 5.99622L0.68684 4.57597C0.321358 4.22527 0.522321 3.61322 1.02733 3.54031L3.07133 3.24609C3.27177 3.21734 3.44514 3.09308 3.53469 2.91388L4.44787 1.0885C4.67383 0.637166 5.32617 0.637166 5.55213 1.0885Z" fill="#278717"/>
</svg>
